<svg width="211" height="211" viewBox="0 0 211 211" fill="none" xmlns="http://www.w3.org/2000/svg">
<ellipse cx="154.522" cy="80.0349" rx="13.2443" ry="13.6094" fill="#262627"/>
<ellipse cx="97.156" cy="146.391" rx="13.2443" ry="13.6094" fill="#262627"/>
<ellipse cx="152.328" cy="135.278" rx="15.4386" ry="15.8642" fill="#262627"/>
<ellipse cx="98.8802" cy="93.5635" rx="15.4386" ry="15.8642" fill="#262627"/>
<ellipse cx="18.6387" cy="18.387" rx="18.6387" ry="18.387" transform="matrix(0.489839 0.871813 -0.860038 0.51023 57.6271 65.8618)" fill="#262627"/>
<ellipse cx="18.6387" cy="18.387" rx="18.6387" ry="18.387" transform="matrix(0.489839 0.871813 -0.860038 0.51023 124.818 26)" fill="#262627"/>
<rect width="4.79966" height="51.2943" transform="matrix(0.489839 0.871813 -0.860038 0.51023 106.478 55.8495)" fill="#262627"/>
<rect x="95.5103" y="97.6707" width="3.44794" height="38.976" fill="#262627"/>
<rect x="152.72" y="89.4569" width="3.44794" height="44.2909" fill="#262627"/>
<rect width="3.49607" height="55.0867" transform="matrix(0.697429 -0.716654 0.697429 0.716654 104.793 93.2864)" fill="#262627"/>
<circle cx="105.5" cy="105.5" r="86.5" stroke="#262627" stroke-width="4"/>
<circle cx="105.5" cy="105.5" r="103.5" stroke="#262627" stroke-width="4"/>
<rect x="19" y="19" width="173" height="173" stroke="#262627" stroke-width="4"/>
<rect x="2" y="2" width="207" height="207" stroke="#262627" stroke-width="4"/>
</svg>
